<?xml version="1.0" encoding="utf-8"?>
<!-- Generator: Adobe Illustrator 25.2.1, SVG Export Plug-In . SVG Version: 6.00 Build 0)  -->
<svg version="1.0" id="Camada_1" xmlns="http://www.w3.org/2000/svg" xmlns:xlink="http://www.w3.org/1999/xlink" x="0px" y="0px"
	 viewBox="0 0 90 70" style="enable-background:new 0 0 90 70;" xml:space="preserve">
<style type="text/css">
	.st0{fill:url(#path1097_1_);}
	.st1{fill:#5EC5EC;}
</style>
<g id="g1123" transform="translate(-254.20716,113.15677)">
	<g id="g1107">
		
			<linearGradient id="path1097_1_" gradientUnits="userSpaceOnUse" x1="-151.4199" y1="200.0706" x2="-140.6472" y2="211.099" gradientTransform="matrix(2.3225 0 0 -2.3225 633.2906 406.1881)">
			<stop  offset="0" style="stop-color:#C4549A"/>
			<stop  offset="1" style="stop-color:#5EC5EC"/>
		</linearGradient>
		<path id="path1097" class="st0" d="M306.7-84c-10.7-10.3-46.1-0.8-36.8,15.5c3.3,5.9,7.6,4.5,12.3,9c0.1,0.1,0.1,0.1,0.2,0.2
			l0.2,0.2c4.6,4.6,3.3,9,9.2,12.2C308.3-38,317.2-73.5,306.7-84L306.7-84z"/>
		
			<ellipse id="ellipse1099" transform="matrix(0.9195 -0.393 0.393 0.9195 51.5337 121.9449)" class="st1" cx="323.6" cy="-64.9" rx="11.6" ry="8.6"/>
		
			<ellipse id="ellipse1101" transform="matrix(0.8657 -0.5005 0.5005 0.8657 85.6288 150.2016)" class="st1" cx="322.8" cy="-84.5" rx="11.6" ry="8.6"/>
		
			<ellipse id="ellipse1103" transform="matrix(0.521 -0.8536 0.8536 0.521 223.3816 198.1342)" class="st1" cx="288.2" cy="-100" rx="11.6" ry="8.6"/>
		
			<ellipse id="ellipse1105" transform="matrix(0.6182 -0.7861 0.7861 0.6182 195.521 205.0458)" class="st1" cx="308.8" cy="-98.7" rx="11.6" ry="8.6"/>
	</g>
</g>
</svg>
